<svg width="31" height="30" viewBox="0 0 31 30" fill="none" xmlns="http://www.w3.org/2000/svg">
<rect x="0.5" width="30" height="30" rx="4" fill="#FFEEDB"/>
<path d="M23.938 2.90039L24.1499 2.91309C24.5692 2.96531 24.9577 3.17126 25.2505 3.48828L25.3892 3.65527L25.3901 3.65625L27.9507 7.23047L28.064 7.38867H28.0073C28.0107 7.41816 28.0104 7.44945 27.9995 7.48242V24.9795L27.9907 25.1445C27.9074 25.9597 27.2136 26.6287 26.3511 26.6289H4.46045C3.5414 26.6289 2.81201 25.8983 2.81201 24.9795V7.46777C2.81201 7.38002 2.85446 7.29791 2.88135 7.24414L2.88525 7.2373L2.89014 7.23047L5.44873 3.65918L5.57959 3.49023C5.90903 3.11681 6.40662 2.90039 6.90283 2.90039H23.938ZM3.60693 24.9795C3.60693 25.4328 3.98169 25.833 4.46045 25.833H26.3804C26.8337 25.833 27.2339 25.4583 27.2339 24.9795V7.86523H19.0942V12.8584L19.0884 12.9492C19.0592 13.1607 18.931 13.3585 18.7524 13.4775L18.7446 13.4824L18.7358 13.4863C18.5125 13.5819 18.2684 13.6219 18.022 13.4814V13.4805L15.4204 12.0781L12.8169 13.4824C12.7106 13.5505 12.5762 13.5839 12.4722 13.584C12.3384 13.584 12.1979 13.5506 12.0884 13.4775V13.4766C11.8869 13.3421 11.7466 13.135 11.7466 12.8584V7.86523H3.60693V24.9795ZM12.5425 7.54102V12.7803L15.3726 11.2217L15.4204 11.1953L15.4683 11.2217L18.2983 12.751V7.50977L17.2212 3.69531H13.6499L12.5425 7.54102ZM19.0103 7.06934H26.8706L24.7505 4.10059V4.09961C24.583 3.88642 24.3335 3.73721 24.0581 3.70312L23.939 3.69531H18.0552L19.0103 7.06934ZM6.90283 3.69531C6.57394 3.69531 6.27898 3.83171 6.09131 4.09961L6.09033 4.10059L3.97021 7.06934H11.8608L12.8159 3.69531H6.90283Z" fill="#DBA362" stroke="#DBA362" stroke-width="0.2"/>
<path d="M17.9031 7.07007V7.86499H12.9382V7.07007H17.9031Z" fill="#DBA362" stroke="#DBA362" stroke-width="0.2"/>
</svg>
