<svg width="300" height="300" viewBox="0 0 300 300" fill="none" xmlns="http://www.w3.org/2000/svg">
<g clip-path="url(#clip0_113_3915)">
<path d="M256.462 99.644C260.087 100.946 261.006 103.962 261 107.74C260.942 142.303 260.907 176.867 260.896 211.431C260.904 211.578 260.922 211.725 260.948 211.871C260.575 212.61 260.962 213.467 260.639 214.213C259.879 218.278 258.624 222.237 256.9 226.002C253.735 232.356 248.781 237.669 242.633 241.302C232.696 247.461 222.807 253.71 212.901 259.927C202.518 266.444 192.137 272.963 181.757 279.484C175.106 283.644 168.577 288.038 161.749 291.859C160.812 292.063 159.84 292.046 158.912 291.808C157.905 291.499 157.01 290.906 156.338 290.103C155.667 289.299 155.246 288.319 155.129 287.282C154.863 284.397 155.03 281.504 155.022 278.615C154.995 269.191 155.016 259.767 155.004 250.342C155.107 249.533 155.051 248.712 154.841 247.924C154.882 247.113 154.96 246.302 154.958 245.491C154.91 219.582 154.896 193.672 154.751 167.764C154.601 166.304 154.889 164.833 155.58 163.535C156.271 162.237 157.334 161.169 158.636 160.465C187.466 142.261 216.187 123.852 244.927 105.48C247.886 103.211 251.075 101.252 254.443 99.6339C255.1 99.4253 255.807 99.4288 256.462 99.644Z" fill="#FEB000"/>
<path d="M48.1869 106.009C49.2514 106.954 50.4767 107.705 51.806 108.228C52.4979 108.327 53.1583 108.579 53.7388 108.965C54.3192 109.35 54.8049 109.859 55.16 110.455C55.3385 110.703 55.5684 110.912 55.8345 111.065C56.1005 111.219 56.3967 111.315 56.7032 111.347C58.6653 111.881 60.4072 113.013 61.6817 114.582C62.1676 115.224 62.8826 115.66 63.6814 115.8C64.3741 115.905 65.0348 116.16 65.6165 116.547C66.1982 116.934 66.6866 117.442 67.0469 118.037C68.1108 118.985 69.3379 119.736 70.67 120.256C71.3607 120.358 72.0197 120.611 72.5991 120.997C73.1784 121.382 73.6636 121.891 74.0191 122.485C74.1971 122.736 74.4278 122.945 74.6955 123.098C74.9631 123.252 75.2612 123.346 75.5692 123.375C76.789 123.948 78.2353 124.119 78.9352 125.615C79.9997 126.559 81.2246 127.31 82.5534 127.833C83.246 127.932 83.9071 128.184 84.4878 128.569C85.0685 128.955 85.5538 129.466 85.9076 130.063C87.2629 131.183 88.7623 132.121 90.3666 132.852C90.8078 132.837 91.243 132.957 91.6124 133.196C91.9818 133.435 92.2674 133.782 92.43 134.187C92.9156 134.83 93.6308 135.265 94.4297 135.405C95.1225 135.51 95.7832 135.765 96.3649 136.152C96.9466 136.539 97.435 137.047 97.7953 137.642C98.8581 138.589 100.083 139.342 101.414 139.863C102.105 139.963 102.766 140.215 103.346 140.6C103.927 140.986 104.412 141.495 104.768 142.09C104.947 142.338 105.177 142.546 105.443 142.7C105.709 142.853 106.004 142.95 106.311 142.982C108.271 143.519 110.012 144.648 111.29 146.213C111.775 146.86 112.492 147.297 113.294 147.433C113.985 147.541 114.644 147.798 115.225 148.184C115.805 148.57 116.294 149.077 116.656 149.669C118.011 150.79 119.51 151.727 121.115 152.457C121.557 152.442 121.992 152.562 122.362 152.802C122.731 153.041 123.016 153.388 123.178 153.795C123.665 154.436 124.379 154.87 125.177 155.01C125.87 155.114 126.532 155.369 127.114 155.757C127.696 156.144 128.184 156.654 128.543 157.25C129.608 158.195 130.833 158.945 132.162 159.468C132.859 159.561 133.525 159.815 134.105 160.208C134.685 160.602 135.163 161.124 135.502 161.734C136.937 163.409 137.669 165.564 137.548 167.757C137.549 177.756 137.611 187.755 137.65 197.754C137.803 198.403 137.846 199.073 137.776 199.736C137.781 228.411 137.781 257.085 137.775 285.76C137.857 286.422 137.807 287.093 137.629 287.736C136.889 289.48 135.566 290.919 133.881 291.812C132.948 292.062 131.965 292.063 131.032 291.814C128.229 290.694 125.597 289.193 123.213 287.356C116.638 283.452 110.208 279.259 103.734 275.156C97.0275 270.906 90.3553 266.592 83.635 262.369C75.3386 257.155 66.9774 252.062 58.7039 246.805C53.9761 244.059 49.4026 241.061 45.0038 237.824C40.5294 234.108 37.0649 229.345 34.9249 223.969C33.3582 220.458 32.4163 216.705 32.1407 212.877C31.9953 212.226 31.9551 211.556 32.0215 210.892C32.0169 175.984 32.017 141.076 32.022 106.168C31.9495 105.505 31.9933 104.835 32.1514 104.186C32.3146 103.383 32.671 102.631 33.1903 101.993C33.7097 101.354 34.3767 100.849 35.1352 100.519C35.8936 100.19 36.7211 100.046 37.5478 100.099C38.3744 100.152 39.176 100.402 39.8846 100.826C41.7301 101.888 43.5092 103.086 45.3182 104.223C45.918 104.223 46.5057 104.39 47.0133 104.706C47.5209 105.023 47.9277 105.474 48.1869 106.009Z" fill="#FE005F"/>
<path d="M117.5 128.737L113.861 126.249C112.36 126.375 111.648 124.922 110.53 124.281L107.745 122.393C106.126 121.961 104.671 121.068 103.561 119.826L100.767 117.941C99.4115 117.7 98.2046 116.945 97.4028 115.838L95.2191 114.458C93.3711 113.882 91.7165 112.82 90.4329 111.385C89.5486 110.977 88.7379 110.428 88.0332 109.76C86.5307 109.89 85.8193 108.435 84.7013 107.795L81.0616 105.313C79.5634 105.429 78.8496 103.982 77.7318 103.34L74.9397 101.454C73.5836 101.215 72.3757 100.46 71.574 99.3525L67.1176 96.4196C66.6056 96.3857 66.1095 96.2296 65.6717 95.9648C65.234 95.6999 64.8676 95.3341 64.604 94.8987C63.7199 94.4897 62.9094 93.9404 62.2047 93.2726C60.7013 93.4052 59.9904 91.9491 58.8724 91.3092L55.2338 88.8211C53.7327 88.9466 53.0205 87.4946 51.9027 86.8535C50.9043 86.161 49.8699 85.5207 48.8039 84.9352C47.9834 84.4398 47.3031 83.7471 46.8263 82.9216C46.3495 82.0961 46.0918 81.1646 46.0771 80.2141C46.0624 79.2635 46.2913 78.3248 46.7424 77.4853C47.1934 76.6458 47.8521 75.9329 48.6569 75.4129C56.8515 70.3 65.0634 65.2199 73.2497 60.0914C84.3963 53.1086 95.5338 46.1086 106.662 39.0914C114.789 33.9807 122.824 28.6845 131.085 23.8419C134.524 21.7455 138.449 20.5569 142.486 20.39C143.551 19.8707 144.721 20.4805 145.792 20.0293C145.852 20.0074 145.915 19.9976 145.978 20.0005C146.041 20.0034 146.103 20.019 146.16 20.0464C146.425 20.4018 146.615 20.8064 146.718 21.236C146.822 21.6656 146.837 22.1114 146.763 22.5468C146.771 54.4536 146.77 86.3604 146.76 118.267C146.762 118.636 146.739 119.005 146.69 119.37C146.662 119.619 146.573 119.857 146.432 120.065C146.291 120.273 146.102 120.444 145.88 120.564C138.72 124.081 132.272 128.971 125.421 133.085C125.301 133.153 125.176 133.214 125.048 133.267C124.213 133.48 123.68 133 123.232 132.327C122.347 131.918 121.536 131.369 120.832 130.7C119.329 130.833 118.618 129.377 117.5 128.737Z" fill="#0080FC"/>
<path d="M146.628 20.0372L149.343 20.0023C150.029 20.3984 150.817 19.9929 151.509 20.3314C159.904 21.7918 166.636 27.1834 173.768 31.5724C185.76 38.9529 197.66 46.5117 209.593 54.0079C221.056 61.2092 232.518 68.4112 243.98 75.6139C244.965 76.3175 245.754 77.2551 246.276 78.3402C246.506 79.359 246.508 80.4151 246.284 81.4351C245.541 82.9672 244.325 84.2267 242.813 85.0326C218.35 100.623 193.895 116.228 169.448 131.847C168.806 132.256 168.165 132.666 167.523 133.077C162.505 130.393 157.833 127.044 152.966 124.069C151.239 122.902 149.434 121.851 147.564 120.924C146.907 120.635 146.289 120.324 146.4 119.357C146.406 87.1161 146.411 54.8792 146.414 22.6467C146.262 21.7729 146.336 20.8754 146.628 20.0372Z" fill="#006EC4"/>
<path d="M146.562 120.177C148.075 120.384 149.497 121.012 150.663 121.987C155.908 125.257 161.14 128.55 166.36 131.868C166.794 132.224 167.185 132.63 167.523 133.077C162.282 136.461 157.042 139.846 151.802 143.232C151.285 143.566 150.794 143.948 150.291 144.308C150.008 144.825 149.595 145.261 149.093 145.576C148.591 145.89 148.015 146.072 147.422 146.104C145.823 147.127 144.557 146.016 143.267 145.284C142.024 144.579 140.84 143.751 139.631 142.977C138.383 142.92 137.734 141.744 136.764 141.168L133.536 138.896C132.182 138.635 130.985 137.859 130.202 136.736L125.737 133.893C125.516 133.889 125.305 133.803 125.146 133.65C124.987 133.498 124.892 133.292 124.881 133.073C127.49 131.025 130.252 129.176 133.143 127.54C136.207 125.512 139.318 123.567 142.426 121.621C143.507 120.765 144.824 120.254 146.205 120.153C146.334 119.978 146.453 119.994 146.562 120.177Z" fill="#00539A"/>
</g>
<defs>
<clipPath id="clip0_113_3915">
<rect width="229" height="272" fill="white" transform="translate(32 20)"/>
</clipPath>
</defs>
</svg>
