<svg width="24" height="24" viewBox="0 0 24 24" fill="none" xmlns="http://www.w3.org/2000/svg">
<path d="M17 15.998H23M20 12.998V18.998M22 9.99795V7.99795C21.9996 7.64722 21.9071 7.30276 21.7315 6.99911C21.556 6.69546 21.3037 6.44331 21 6.26795L14 2.26795C13.696 2.09241 13.3511 2 13 2C12.6489 2 12.304 2.09241 12 2.26795L5 6.26795C4.69626 6.44331 4.44398 6.69546 4.26846 6.99911C4.09294 7.30276 4.00036 7.64722 4 7.99795V15.9979C4.00036 16.3487 4.09294 16.6931 4.26846 16.9968C4.44398 17.3004 4.69626 17.5526 5 17.7279L12 21.7279C12.304 21.9035 12.6489 21.9959 13 21.9959C13.3511 21.9959 13.696 21.9035 14 21.7279L16 20.5879M17.4998 9.39796L8.5498 4.23796M4.29004 6.99796L13 11.998M13 11.998L21.71 6.99796M13 11.998L13 21.998" stroke="#16151C" stroke-width="1.3" stroke-linecap="round" stroke-linejoin="round"/>
</svg>
