<svg width="16" height="17" viewBox="0 0 16 17" fill="none" xmlns="http://www.w3.org/2000/svg">
<path fill-rule="evenodd" clip-rule="evenodd" d="M7.9999 6.6138C6.95604 6.6138 6.11323 7.45661 6.11323 8.50047C6.11323 9.54433 6.95604 10.3871 7.9999 10.3871C9.04375 10.3871 9.88656 9.54433 9.88656 8.50047C9.88656 7.45661 9.04375 6.6138 7.9999 6.6138ZM5.11323 8.50047C5.11323 6.90433 6.40375 5.6138 7.9999 5.6138C9.59604 5.6138 10.8866 6.90433 10.8866 8.50047C10.8866 10.0966 9.59604 11.3871 7.9999 11.3871C6.40375 11.3871 5.11323 10.0966 5.11323 8.50047Z" fill="white"/>
<path fill-rule="evenodd" clip-rule="evenodd" d="M1.50489 6.49845C3.09884 3.99287 5.43458 2.48047 7.9999 2.48047C10.5653 2.48047 12.9012 3.993 14.4951 6.49877C14.8584 7.06833 15.0232 7.79791 15.0232 8.49714C15.0232 9.19636 14.8584 9.92594 14.4951 10.4955C12.9012 13.0013 10.5653 14.5138 7.9999 14.5138C5.43446 14.5138 3.09863 13.0013 1.50468 10.4955C1.14137 9.92594 0.976562 9.19636 0.976562 8.49714C0.976562 7.79777 1.14143 7.06805 1.50489 6.49845ZM7.9999 3.48047C5.85866 3.48047 3.80783 4.74127 2.34844 7.0355L2.34802 7.03615C2.11163 7.4065 1.97656 7.93663 1.97656 8.49714C1.97656 9.05764 2.11163 9.58777 2.34802 9.95812L2.34844 9.95877C3.80783 12.253 5.85866 13.5138 7.9999 13.5138C10.1411 13.5138 12.192 12.253 13.6514 9.95877L13.6518 9.95812C13.8882 9.58777 14.0232 9.05764 14.0232 8.49714C14.0232 7.93663 13.8882 7.4065 13.6518 7.03615L13.6514 7.0355C12.192 4.74127 10.1411 3.48047 7.9999 3.48047Z" fill="white"/>
</svg>
